<svg width="268" height="211" viewBox="0 0 268 211" fill="none" xmlns="http://www.w3.org/2000/svg">
<circle cx="136" cy="105" r="100" fill="#68B738"/>
<g clip-path="url(#cat2)">
<path d="M246.2 60.6C248.509 56.9261 251.578 53.7892 255.2 51.4C257.2 50 258.4 50 259.6 52.6C261.2 56.4 262.6 60.4 261.4 64.6C261.182 65.3123 261.14 66.0671 261.28 66.799C261.419 67.5309 261.735 68.2177 262.2 68.7999C263.4 70.4 264.4 72 265.4 73.4C266.761 75.1275 267.644 77.1826 267.96 79.359C268.276 81.5355 268.014 83.7567 267.2 85.7999C266.466 87.7836 266.327 89.9384 266.8 92C267.2 93.98 267.2 96.0199 266.8 98C266.638 99.4828 266.038 100.884 265.076 102.024C264.115 103.164 262.835 103.991 261.4 104.4C258.842 104.887 256.559 106.314 255 108.4C254.811 108.707 254.546 108.961 254.231 109.136C253.916 109.311 253.561 109.402 253.2 109.4C250.8 109.8 244.8 104.4 244.8 102V100.8C245 93.5999 244.6 93 238 90C236.619 89.5128 235.381 88.6877 234.4 87.5999C233.2 86 231.6 86.2 229.8 86.7999C228 87.3999 227 88.5999 227.2 90.5999C227.803 95.4417 228.004 100.325 227.8 105.2C227.813 105.756 227.95 106.303 228.2 106.8C234.4 115.8 236.8 126.4 239.8 136.6C242.2 144.4 246.6 148.6 254.6 149.2C255.88 149.302 257.151 149.503 258.4 149.8C260.044 150.064 261.57 150.815 262.783 151.956C263.995 153.097 264.837 154.575 265.2 156.2C266.6 160.4 265.8 161.4 261.6 161.4H248.6C246.917 161.485 245.267 160.911 244 159.8C241.976 158.092 239.677 156.739 237.2 155.8C234.462 154.789 232.093 152.977 230.4 150.6C228.057 147.327 225.376 144.31 222.4 141.6C216.8 135.8 210.8 130.2 205.6 124.2C201.641 120.112 199.358 114.689 199.2 109C199.2 107.2 198.8 106.4 196.8 107.2C196.201 107.58 195.509 107.787 194.8 107.8C189.2 107.8 186.4 111.2 184.4 116.2C182.6 120.4 180.2 124.4 178 128.6C176.753 131.229 176.071 134.091 176 137C176 141.8 177.2 143.4 181.6 145C184.4 146 187 147 188.4 149.8C190 153 189.6 153.8 186.2 154H172.6C171.816 154.078 171.027 153.907 170.346 153.512C169.664 153.118 169.123 152.519 168.8 151.8L165.2 145.8C164.139 144.234 163.459 142.442 163.216 140.566C162.973 138.691 163.173 136.784 163.8 135C164.666 131.527 164.734 127.903 164 124.4C163.496 121.96 163.539 119.439 164.127 117.018C164.715 114.597 165.833 112.337 167.4 110.4C168.6 109 168.6 108.4 166.6 108C158.422 106.263 150.493 103.508 143 99.7999C142.947 99.7999 142.896 99.7789 142.859 99.7414C142.821 99.7039 142.8 99.653 142.8 99.5999C136.4 97.1999 135.2 97.6 133.4 104.2C131.8 109.8 130.2 115.4 129 121.2C127.6 127.6 129.2 133.6 131.2 139.6C132 142 134.4 141.8 136.2 142.4C140.2 143.6 143.6 145.2 145.2 149.4C146.6 152.6 146.4 153 143 153C139.6 153 136.2 152.8 132.6 153C129.562 153.055 126.597 152.067 124.2 150.2C114.6 143.8 111.8 134 111 123.4C110.6 116.8 107 111.6 102.8 106.6C102 105.6 101.2 105.2 100 106C95.707 108.367 91.2249 110.374 86.6 112C76.9485 115.408 68.4793 121.517 62.2 129.6C59.8553 132.55 58.3368 136.07 57.8 139.8C57.2 143.4 58.2 145 61.8 146C65.4 147 67.2 149 67.6 152.8C67.8 154.4 67.2 155.2 65.6 155.2H49.4C48.8698 155.162 48.3566 154.997 47.9039 154.719C47.4512 154.44 47.0725 154.056 46.8 153.6C44.2877 150.49 42.9433 146.598 43 142.6C42.8951 135.69 43.4982 128.787 44.8 122C45.067 119.967 45.8259 118.031 47.0108 116.358C48.1958 114.685 49.7711 113.326 51.6 112.4C63.4 106.8 69.6 96.2 75.2 85.2C76.4 83 75.4 82.5999 73.4 82.7999C67.8027 83.577 62.4994 85.781 58 89.2C52.1084 93.4976 46.5585 98.2452 41.4 103.4C35.8993 108.987 28.6054 112.457 20.8 113.2C6.20002 114 -0.599978 105.8 2.18973e-05 92.5999C0.134147 88.0991 1.83132 83.7855 4.80002 80.4C5.83206 79.0619 7.23949 78.0619 8.84256 77.5276C10.4456 76.9932 12.1716 76.9488 13.8 77.4C16.8 78.1999 17.6 79.7999 16.4 82.7999C15.8 84 15 85 14.4 86.2C13.5372 87.4259 12.8631 88.7742 12.4 90.2C10.2 96.2 13.2 100.4 19.4 101C26 101.6 31.4 98.7999 36.4 94.7999C42.4239 89.9764 47.8014 84.3972 52.4 78.2C55.8385 73.6748 60.1682 69.9025 65.1217 67.1162C70.0751 64.3299 75.5472 62.5886 81.2 62C85.8 61.4 89.8 59.4 94.2 58.2C102.429 55.6912 110.998 54.4767 119.6 54.6C123.584 54.7659 127.553 54.0131 131.2 52.4C141 48.4 151.2 48.4 161.4 50.4C169.4 52 177.4 54 185.2 56C189.842 56.8649 194.615 56.7285 199.2 55.6C207.977 53.375 216.956 52.035 226 51.6C231.925 51.3117 237.83 52.479 243.2 55C247.2 56.8 247.2 56.8 246.2 60.6Z" fill="black"/>
</g>
<defs>
<clipPath id="cat2">
<rect width="268" height="112" fill="white" transform="translate(0 49)"/>
</clipPath>
</defs>
</svg>
